<svg width="284" height="112" viewBox="0 0 284 112" fill="none" xmlns="http://www.w3.org/2000/svg">
<path fill-rule="evenodd" clip-rule="evenodd" d="M157.765 104.574C157.765 108.458 160.92 111.606 164.811 111.606C168.703 111.606 171.857 108.458 171.857 104.574C171.857 100.69 168.703 97.5417 164.811 97.5417C160.92 97.5417 157.765 100.69 157.765 104.574Z" fill="black" stroke="black" stroke-width="0.374212" stroke-linecap="square"/>
<path fill-rule="evenodd" clip-rule="evenodd" d="M142.991 104.623C142.991 108.507 146.145 111.655 150.037 111.655C153.928 111.655 157.083 108.507 157.083 104.623C157.083 100.739 153.928 97.5908 150.037 97.5908C146.145 97.5908 142.991 100.739 142.991 104.623Z" fill="black" stroke="black" stroke-width="0.374212" stroke-linecap="square"/>
<path d="M21.7101 0.946878C30.2149 -0.666542 35.6286 2.28515 38.7 6.65002L64.1217 55.358C73.5214 64.4203 87.8296 63.906 100.526 65.73L248.785 67.1536C261.393 68.3798 263.658 77.1648 269.936 83.0168C273.732 83.8504 280.661 85.6059 281.325 87.0843L281.39 87.0191C283.496 88.5898 282.89 92.5322 281.731 93.5922C276.574 98.715 270.715 99.6252 265.055 101.727C256.774 103.385 248.63 105.524 239.836 105.388L118.219 104.168L43.7843 72.5841C30.348 70.3955 -5.72508 67.5044 1.53564 65.8346C1.84519 65.7634 1.87811 65.2945 1.58694 65.1575C-3.32252 64.4772 9.95311 64.9277 10.6532 62.7341C13.5004 42.5323 18.9535 4.50246 19.3795 1.66737C19.4368 1.24149 21.3825 1.02534 21.7796 0.9349" fill="url(#paint0_linear_75_2195)"/>
<path d="M21.7101 0.946878C30.2149 -0.666542 35.6286 2.28515 38.7 6.65002L64.1217 55.358C73.5214 64.4203 87.8296 63.906 100.526 65.73L248.785 67.1536C261.393 68.3798 263.658 77.1648 269.936 83.0168C273.732 83.8504 280.661 85.6059 281.325 87.0843L281.39 87.0191C283.496 88.5898 282.89 92.5322 281.731 93.5922C276.574 98.715 270.715 99.6252 265.055 101.727C256.774 103.385 248.63 105.524 239.836 105.388L118.219 104.168L43.7843 72.5841C30.348 70.3955 -5.72508 67.5044 1.53564 65.8346C1.84519 65.7634 1.87811 65.2945 1.58694 65.1575C-3.32252 64.4772 9.95311 64.9277 10.6532 62.7341C13.5004 42.5323 18.9535 4.50246 19.3795 1.66737C19.4368 1.24149 21.3825 1.02534 21.7796 0.9349" stroke="black"/>
<path d="M269.795 83.3105L265.337 88.6314L265.625 101.286" stroke="black" stroke-width="0.3"/>
<path d="M167.98 86.4744C173.058 86.5009 177.479 86.9116 181.785 87.6248C198.668 92.6128 192.422 101.655 181.498 103.875L133.322 103.444C129.44 102.437 127.858 100.28 125.125 98.6979C123.986 94.4817 124.519 90.6001 125.269 86.762L167.98 86.4744Z" stroke="black"/>
<path d="M140.793 96.4395H174.478V103.761H140.793V96.4395Z" fill="#5D3A9A" stroke="black" stroke-width="0.305" stroke-linecap="square"/>
<path d="M258.122 82.7637H261.811V89.4394H258.122V82.7637Z" fill="black" stroke="black" stroke-width="0.292328" stroke-linecap="square"/>
<path d="M23.0952 1.03003L22.2267 65.5267" stroke="black" stroke-width="0.3"/>
<path d="M126.493 81.2914C143.924 85.0666 177.594 91.9043 193.824 82.9343L193.843 81.6353C178.322 72.4666 144.747 78.4249 126.493 81.2914Z" fill="#9079BA" stroke="black" stroke-width="0.96108"/>
<path d="M145.781 70.467L145.873 77.9532C155.728 76.5137 165.019 76.8477 174.361 76.4347L174.23 71.1196C164.769 70.9318 155.242 71.3042 145.781 70.467Z" fill="#1F0F3C" stroke="black" stroke-width="0.9"/>
<path d="M166.012 65.5268C181.29 63.6718 194.906 64.2352 204.246 71.0178L195.608 75.2967C192.237 83.4831 182.19 78.2587 177.808 80.373C161.535 74.2536 162.802 75.316 155.436 72.0347L157.674 70.6111L167.639 65.7301" fill="#5D3A9A"/>
<path d="M166.012 65.5268C181.29 63.6718 194.906 64.2352 204.246 71.0178L195.608 75.2967C192.237 83.4831 182.19 78.2587 177.808 80.373C161.535 74.2536 162.802 75.316 155.436 72.0347L157.674 70.6111L167.639 65.7301" stroke="black"/>
<path d="M189.021 68.7231C177.798 59.0877 126.641 70.312 128.306 69.8857C141.526 69.4112 187.984 73.8385 189.021 68.7231Z" fill="#9079BA" stroke="black"/>
<path d="M197.128 74.4V67.3572" stroke="black"/>
<path d="M56.9141 65.3529C53.2905 71.0446 17.6921 68.0704 6.32033 66.1555C20.1387 65.5789 46.401 60.6109 56.9141 65.3529Z" fill="#5D3A9A" stroke="black" stroke-width="1.1858"/>
<path fill-rule="evenodd" clip-rule="evenodd" d="M269.838 100.092C273.516 98.8467 274.075 98.4866 275.838 97.5853C277.601 96.6838 279.304 95.7168 280.866 94.32C281.423 93.8224 281.771 93.3426 281.953 92.5913C282.698 90.9794 283.261 88.8922 281.725 87.7876C282.047 88.694 281.859 87.609 280.604 86.496C279.329 85.7742 277.537 85.0573 275.872 84.5324C274.581 84.1255 270.109 83.4064 269.814 83.4194C269.73 83.4234 268.689 84.769 267.521 86.1686L265.417 88.6775L265.555 94.6453C265.621 97.8979 265.738 100.94 265.749 101.031C265.765 101.168 266.335 101.276 269.228 100.296L269.838 100.092Z" fill="black" stroke="black" stroke-width="0.0355904" stroke-linecap="square"/>
<path d="M249.982 105.457H238.765C239.132 113.269 250.248 111.744 249.982 105.457Z" fill="black" stroke="black" stroke-width="0.84403"/>
<path d="M262.445 79.3775L263.872 79.0125L266.186 81.7532L264.728 82.1287L262.445 79.3775Z" fill="black" stroke="black" stroke-width="0.390304"/>
<path d="M259.112 71.9007C256.066 72.7126 255.605 71.0889 255.605 71.0889L248.13 71.1701L247.718 73.4845L247.761 77.9084L259.481 77.9084C261.613 76.3826 263.346 76.3763 264.002 76.3659L259.112 71.9007Z" fill="#5076B0" stroke="black" stroke-width="0.93796"/>
<path d="M258.004 71.4102L263.356 77.5006Z" fill="black"/>
<path d="M258.004 71.4102L263.356 77.5006" stroke="black" stroke-width="0.4"/>
<path d="M247.161 73.7173L257.082 73.8096Z" fill="black"/>
<path d="M247.161 73.7173L257.082 73.8096" stroke="black" stroke-width="0.4"/>
<path d="M254.682 70.2107L256.944 73.6709L259.204 80.0847" fill="black"/>
<path d="M254.682 70.2107L256.944 73.6709L259.204 80.0847" stroke="black" stroke-width="0.4"/>
<path d="M250.714 69.9338L251.372 73.6196L251.545 79.9001" fill="black"/>
<path d="M250.714 69.9338L251.372 73.6196L251.545 79.9001" stroke="black" stroke-width="0.4"/>
<path d="M253.021 70.072L254.218 73.6652L255.19 79.623" fill="black"/>
<path d="M253.021 70.072L254.218 73.6652L255.19 79.623" stroke="black" stroke-width="0.4"/>
<path d="M254.913 70.3952L256.897 73.625L259.573 73.1175L260.265 72.6104L258.75 71.3344L256.712 70.3491L255.328 69.98L254.913 70.3952Z" fill="black"/>
<path d="M137.902 81.8379L141.732 82.8068L140.44 83.1759C142.045 83.1146 146.971 82.8215 147.199 82.7607" stroke="black" stroke-width="1.3"/>
<path d="M130.056 78.4094H128.995V79.209H130.056V78.4094Z" fill="black" stroke="black" stroke-width="0.275267"/>
<path d="M63.9576 81.3204L54.543 77.2483L53.9774 78.3479L63.392 82.42L63.9576 81.3204Z" fill="#5D3A9A" stroke="black" stroke-width="0.349302"/>
<path d="M53.9375 78.4414C53.1852 81.2994 54.8219 83.2391 56.632 84.0976C58.3941 85.058 61.8839 84.8544 63.2842 82.4774L63.1934 82.3866" fill="#9079BA"/>
<path d="M53.9375 78.4414C53.1852 81.2994 54.8219 83.2391 56.632 84.0976C58.3941 85.058 61.8839 84.8544 63.2842 82.4774L63.1934 82.3866" stroke="black" stroke-width="0.4"/>
<path d="M209.315 95.5117L209.272 103.775" stroke="black" stroke-width="0.4"/>
<path d="M209.961 95.5281L209.871 103.769" stroke="black" stroke-width="0.4"/>
<path d="M210.607 95.5115L210.494 103.753" stroke="black" stroke-width="0.4"/>
<path d="M209 101.276C210.663 101.326 210.847 101.321 210.847 101.321" stroke="black" stroke-width="0.5"/>
<path d="M208.959 103.284C210.621 103.334 210.806 103.33 210.806 103.33" stroke="black" stroke-width="0.5"/>
<path d="M208.863 98.426L208.839 95.2451L210.889 95.1981L210.913 98.379L208.863 98.426Z" fill="black"/>
<path d="M208.973 103.086C208.973 103.42 209.397 103.69 209.919 103.69C210.442 103.69 210.865 103.42 210.865 103.086C210.865 102.753 210.442 102.483 209.919 102.483C209.397 102.483 208.973 102.753 208.973 103.086Z" fill="black"/>
<path d="M208.941 101.047C208.941 101.381 209.364 101.651 209.887 101.651C210.409 101.651 210.833 101.381 210.833 101.047C210.833 100.714 210.409 100.444 209.887 100.444C209.364 100.444 208.941 100.714 208.941 101.047Z" fill="black"/>
<path d="M205.69 94.9416C205.69 97.7956 207.612 100.109 209.981 100.109C212.351 100.109 214.272 97.7956 214.272 94.9416C214.272 92.0876 212.351 89.7739 209.981 89.7739C207.612 89.7739 205.69 92.0876 205.69 94.9416Z" fill="black"/>
<path d="M209.569 97.3938L209.552 100.72Z" fill="#FF0000"/>
<path d="M209.569 97.3938L209.552 100.72" stroke="#886FB4" stroke-width="0.244299"/>
<path d="M208.81 95.0276C208.81 95.5771 209.27 96.0226 209.838 96.0226C210.406 96.0226 210.866 95.5771 210.866 95.0276C210.866 94.478 210.406 94.0325 209.838 94.0325C209.27 94.0325 208.81 94.478 208.81 95.0276Z" fill="black"/>
<path d="M210.235 97.3936L210.218 100.72Z" fill="#FF0000"/>
<path d="M210.235 97.3936L210.218 100.72" stroke="#886FB4" stroke-width="0.244299"/>
<path d="M211.86 94.2905C210.353 92.6259 208.959 93.195 208.054 94.1982C208.898 93.1869 210.294 92.0304 211.86 94.2905Z" stroke="#886FB4" stroke-width="0.5"/>
<path d="M215.14 88.7798H216.445V101.569H215.14V88.7798Z" fill="black" stroke="#9079BA" stroke-width="0.5"/>
<path d="M256.749 104.423H259.849V105.271H256.749V104.423Z" fill="white"/>
<path d="M260.098 105.484L260.294 101.569C258.097 102.309 255.245 102.902 251.942 103.396L252.203 105.941L256.314 105.81L257.097 105.158C257.655 104.788 258.333 104.599 259.38 104.962L260.098 105.484Z" fill="#9079BA" stroke="black" stroke-width="0.5"/>
<path d="M256.28 106.319C256.28 107.441 257.189 108.35 258.31 108.35C259.431 108.35 260.34 107.441 260.34 106.319C260.34 105.198 259.431 104.289 258.31 104.289C257.189 104.289 256.28 105.198 256.28 106.319Z" fill="black" stroke="black" stroke-width="0.5"/>
<path d="M189.283 104.908C189.283 107.162 191.051 108.989 193.233 108.989C195.415 108.989 197.183 107.162 197.183 104.908C197.183 102.654 195.415 100.827 193.233 100.827C191.051 100.827 189.283 102.654 189.283 104.908Z" fill="black" stroke="black" stroke-width="0.560203"/>
<path d="M188.619 104.077L183.359 103.893L179.391 102.416V99.8325L182.436 98.8174L195.632 98.7251C196.286 98.6625 197.717 99.0657 199.6 99.7402L199.508 102.232C198.739 103.832 197.231 103.769 195.724 103.893L188.619 104.077Z" fill="#9079BA" stroke="black" stroke-width="0.5"/>
<path d="M127.16 88.3896H132.512V99.8324H127.16V88.3896Z" fill="black" stroke="black" stroke-width="0.5"/>
<path d="M129.447 93.0303L129.685 103.515L129.477 105.636C129.943 105.724 130.084 105.758 130.503 105.563L129.993 103.529L130.072 93.2766L129.447 93.0303Z" fill="black" stroke="black" stroke-width="0.4"/>
<path d="M104.248 93.4254C104.248 96.8401 106.892 99.6082 110.154 99.6082C113.416 99.6082 116.06 96.8401 116.06 93.4254C116.06 90.0108 113.416 87.2427 110.154 87.2427C106.892 87.2427 104.248 90.0108 104.248 93.4254Z" fill="black" stroke="black" stroke-width="0.5"/>
<path d="M109.476 104.811L109.584 89.9485L110.691 89.9565L110.583 104.819L109.476 104.811Z" fill="black"/>
<path d="M109.074 106.292L109.121 103.239L111.059 103.246L111.011 106.298L109.074 106.292Z" fill="black"/>
<path d="M111.906 92.1516C110.399 90.487 109.005 91.0561 108.1 92.0593C108.944 91.048 110.34 89.8915 111.906 92.1516Z" stroke="#886FB4" stroke-width="0.5"/>
<path d="M238.226 85.1997H234.415C232.955 85.1997 231.771 86.3834 231.771 87.8436V101.876C231.771 103.337 232.955 104.52 234.415 104.52H238.226C239.686 104.52 240.87 103.337 240.87 101.876V87.8436C240.87 86.3834 239.686 85.1997 238.226 85.1997Z" stroke="black" stroke-width="0.3" stroke-linecap="square"/>
<path fill-rule="evenodd" clip-rule="evenodd" d="M237.493 89.4187C237.493 90.1218 236.923 90.6917 236.22 90.6917C235.517 90.6917 234.947 90.1218 234.947 89.4187C234.947 88.7157 235.517 88.1458 236.22 88.1458C236.923 88.1458 237.493 88.7157 237.493 89.4187Z" fill="black" stroke="black" stroke-width="0.354076" stroke-linecap="square"/>
<path d="M91.0489 75.6484L81.5899 77.7982C78.9278 78.1442 78.9154 77.6069 78.4369 77.2249L77.2903 74.9318L81.0166 71.3489L88.7558 69.9157C89.8428 70.1191 90.4292 68.8207 92.1955 71.0622L93.4854 73.7853L91.6222 75.2185L90.619 75.7917" stroke="black" stroke-width="0.6"/>
<path d="M87.9027 73.212C87.9027 74.3202 87.0014 75.2185 85.8896 75.2185C84.7778 75.2185 83.8765 74.3202 83.8765 73.212C83.8765 72.1039 84.7778 71.2056 85.8896 71.2056C87.0014 71.2056 87.9027 72.1039 87.9027 73.212Z" fill="#5D3A9A" stroke="black" stroke-width="0.636037"/>
<defs>
<linearGradient id="paint0_linear_75_2195" x1="270.581" y1="68.7078" x2="20.0806" y2="64.7078" gradientUnits="userSpaceOnUse">
<stop stop-color="#9781BE"/>
<stop offset="1" stop-color="#5D3A9A"/>
</linearGradient>
</defs>
</svg>
