<svg width="512" height="512" viewBox="0 0 512 512" fill="none" xmlns="http://www.w3.org/2000/svg">
<path d="M0 48C0 21.4903 21.4903 0 48 0H464C490.51 0 512 21.4903 512 48V464C512 490.51 490.51 512 464 512H48C21.4903 512 0 490.51 0 464V48Z" fill="#E3B5C8"/>
<path d="M213.867 192.4C213.515 191.586 213.721 191.166 213.867 191.058C214.145 190.746 215.497 191.505 216.138 191.924C228.115 197.811 248.316 200.538 257.351 200.43C264.579 200.343 283.437 199.658 291.962 199.326C292.222 199.361 292.301 199.658 292.31 199.802C291.499 204.434 277.877 218.372 274.679 220.861C271.483 223.351 256.1 234.821 256.007 234.929C255.915 235.038 255.845 235.081 255.544 235.103C255.303 235.12 255.135 234.995 255.081 234.929L237.543 220.861C228.925 214.78 219.358 202.01 217.574 199.369C215.79 196.729 214.307 193.417 213.867 192.4Z" fill="white"/>
<path d="M260.655 339.352C258.616 336.703 257.705 332.274 257.504 330.391C252.593 337.837 247.643 343.031 245.782 344.697C243.874 346.696 238.452 351.528 232.021 354.87C223.982 359.048 217.24 358.918 214.993 358.982C213.196 359.034 213.287 359.956 213.557 360.411C220.924 369.025 238.183 378.18 255.674 377.617C273.165 377.055 288.27 365.345 291.675 361.449C295.081 357.554 293.968 356.883 293.691 356.19C293.413 355.498 290.077 353.571 283.173 351.494C276.27 349.415 273.513 348.809 269.829 347.36C266.145 345.909 263.203 342.663 260.655 339.352Z" fill="white"/>
<path fill-rule="evenodd" clip-rule="evenodd" d="M207.282 202.514C166.726 151.761 237.989 128.112 237.989 128.112C228.126 127.358 216.956 130.54 209.139 133.434C199.798 136.893 191.443 142.374 185.252 149.663C174.833 161.929 173.914 174.823 175.763 184.895C177.435 194.009 181.885 202.486 188.229 209.666C203.243 226.66 225.805 244.641 240.415 255.6C222.555 268.775 193.642 291.386 183.892 306.41C183.892 306.41 158.4 342.016 193.741 369.917C193.741 369.917 214.019 383.469 238.353 384C238.353 384 174.912 364.868 201.273 317.304C201.273 317.304 217.496 289.67 253.06 267.967C253.897 267.456 254.728 266.936 255.552 266.407C256.376 266.936 257.206 267.456 258.044 267.967C293.608 289.67 309.83 317.304 309.83 317.304C336.191 364.868 272.751 384 272.751 384C297.084 383.469 317.362 369.917 317.362 369.917C352.704 342.016 327.211 306.41 327.211 306.41C317.462 291.386 288.548 268.775 270.688 255.6C285.299 244.641 307.86 226.66 322.874 209.666C329.219 202.486 333.669 194.009 335.34 184.895C337.189 174.823 336.271 161.929 325.852 149.663C319.66 142.374 311.306 136.893 301.964 133.434C294.147 130.54 282.978 127.358 273.115 128.112C273.115 128.112 344.377 151.761 303.822 202.514C303.822 202.514 290.883 221.24 255.552 244.764C220.221 221.24 207.282 202.514 207.282 202.514Z" fill="white"/>
</svg>
