<svg width="137" height="27" viewBox="0 0 137 27" fill="none" xmlns="http://www.w3.org/2000/svg">
<g clip-path="url(#clip0_39_47)">
<path d="M27.7515 8.88184C27.0776 10.0049 26.6733 11.1092 26.5386 12.1948C26.5386 19.9888 26.5386 23.8783 26.5386 23.8633H28.1108V16.9902C28.7772 17.8063 29.5221 18.4165 30.3457 18.8208C31.1693 19.2176 32.0715 19.416 33.0522 19.416C34.7892 19.416 36.2754 18.7834 37.5107 17.5181C38.7461 16.2528 39.3638 14.7179 39.3638 12.9136C39.3638 11.1392 38.7424 9.62305 37.4995 8.36523C36.2567 7.10742 34.7593 6.47852 33.0073 6.47852C32.0041 6.47852 31.0607 6.67318 30.1772 7.0625C29.3013 7.44434 28.4927 8.05078 27.7515 8.88184ZM32.8726 7.99463C33.7635 7.99463 34.5796 8.21549 35.3208 8.65723C36.0695 9.09147 36.6647 9.69792 37.1064 10.4766C37.5482 11.2552 37.769 12.0863 37.769 12.9697C37.769 13.8382 37.5444 14.673 37.0952 15.4741C36.6535 16.2677 36.0545 16.8854 35.2983 17.3271C34.5496 17.7614 33.7485 17.9785 32.895 17.9785C32.0265 17.9785 31.203 17.7614 30.4243 17.3271C29.6457 16.8854 29.0467 16.2902 28.6274 15.5415C28.2082 14.7853 27.9985 13.943 27.9985 13.0146C27.9985 11.5846 28.4702 10.3905 29.4136 9.43213C30.3569 8.4738 31.5099 7.99463 32.8726 7.99463ZM41.9468 13.7222V12.2397C42.0666 11.4985 42.2388 10.8958 42.4634 10.4316C42.9875 9.14388 43.6912 8.20052 44.5747 7.60156C45.4582 7.0026 46.1919 6.70312 46.7759 6.70312C47.2101 6.70312 47.6743 6.84538 48.1685 7.12988L47.3486 8.45508C46.6523 8.20052 45.9598 8.40641 45.271 9.07275C44.5897 9.7391 44.118 10.4653 43.856 11.2515C43.6613 11.9478 43.564 13.2542 43.564 15.1709V19.3374H41.9468V13.7222ZM50.0664 1.9751C50.4258 1.9751 50.7327 2.10238 50.9873 2.35693C51.2493 2.61149 51.3804 2.91846 51.3804 3.27783C51.3804 3.63721 51.2493 3.94792 50.9873 4.20996C50.7327 4.46452 50.4258 4.5918 50.0664 4.5918C49.707 4.5918 49.4001 4.46452 49.1455 4.20996C48.891 3.94792 48.7637 3.63721 48.7637 3.27783C48.7637 2.91846 48.891 2.61149 49.1455 2.35693C49.4001 2.10238 49.707 1.9751 50.0664 1.9751ZM49.2803 7.04004H50.8638V19.3599H49.2803V7.04004ZM54.1206 14.5869V12.6216C54.2554 10.9445 54.6073 9.71663 55.1763 8.93799C55.6479 8.22673 56.2656 7.66146 57.0293 7.24219C57.5309 6.92025 58.2459 6.74805 59.1743 6.72559C59.7733 6.72559 60.3797 6.83789 60.9937 7.0625C61.6076 7.28711 62.083 7.58659 62.4199 7.96094C62.7568 8.33529 63.0975 8.89681 63.4419 9.64551C63.6291 9.16634 64.0221 8.60482 64.6211 7.96094C64.9131 7.71387 65.2912 7.47054 65.7554 7.23096C66.0698 7.02881 66.7998 6.86035 67.9453 6.72559C68.7988 6.72559 69.6187 6.93896 70.4048 7.36572C71.1909 7.79248 71.7412 8.39518 72.0557 9.17383C72.3776 9.94499 72.5386 11.098 72.5386 12.6328V19.3599H70.9214V12.6328C70.9214 11.3151 70.8278 10.4092 70.6406 9.91504C70.4535 9.4209 70.1315 9.02409 69.6748 8.72461C69.2181 8.41764 68.6678 8.26416 68.0239 8.26416C66.811 8.34652 65.7741 8.93424 64.9131 10.0273C64.5762 10.4915 64.3216 11.521 64.1494 13.1157V19.3599H62.5659V13.0483C62.5659 11.5659 62.4012 10.5589 62.0718 10.0273C61.7424 9.48828 61.3493 9.06152 60.8926 8.74707C60.4359 8.42513 59.8669 8.26416 59.1855 8.26416C58.4518 8.26416 57.8192 8.45133 57.2876 8.82568C56.7635 9.20003 56.3517 9.76156 56.0522 10.5103C55.7528 11.2515 55.633 12.4606 55.6929 14.1377V19.3599H54.1206V14.5869ZM81.6802 6.43359C83.5744 6.43359 85.1466 7.11865 86.397 8.48877C87.5275 9.74658 88.0928 11.2327 88.0928 12.9473C88.0928 14.6618 87.4938 16.1629 86.2959 17.4507C85.098 18.731 83.5594 19.3711 81.6802 19.3711C79.7935 19.3711 78.2511 18.731 77.0532 17.4507C75.8628 16.1629 75.2676 14.6618 75.2676 12.9473C75.2676 11.2402 75.8328 9.75781 76.9634 8.5C78.2137 7.1224 79.786 6.43359 81.6802 6.43359ZM81.6802 7.9834C80.37 7.9834 79.2432 8.47005 78.2998 9.44336C77.3564 10.4167 76.8848 11.5921 76.8848 12.9697C76.8848 13.8607 77.0981 14.6955 77.5249 15.4741C77.9591 16.2453 78.5431 16.8405 79.2769 17.2598C80.0106 17.6715 80.8117 17.8774 81.6802 17.8774C82.5636 17.8774 83.3685 17.6715 84.0947 17.2598C84.8285 16.8405 85.4087 16.2453 85.8354 15.4741C86.2622 14.6955 86.4756 13.8607 86.4756 12.9697C86.4756 11.5921 86.0039 10.4167 85.0605 9.44336C84.1172 8.47005 82.9904 7.9834 81.6802 7.9834ZM90.4175 13.7222V12.2397C90.5373 11.4985 90.7095 10.8958 90.9341 10.4316C91.4582 9.14388 92.1619 8.20052 93.0454 7.60156C93.9289 7.0026 94.6626 6.70312 95.2466 6.70312C95.6808 6.70312 96.145 6.84538 96.6392 7.12988L95.8193 8.45508C95.123 8.20052 94.4305 8.40641 93.7417 9.07275C93.0604 9.7391 92.5887 10.4653 92.3267 11.2515C92.132 11.9478 92.0347 13.2542 92.0347 15.1709V19.3374H90.4175V13.7222ZM109.375 16.9678C110.048 15.8447 110.453 14.7404 110.587 13.6548C110.587 5.86084 110.587 1.97135 110.587 1.98633H109.015V8.85938C108.349 8.04329 107.604 7.43685 106.78 7.04004C105.957 6.63574 105.055 6.43359 104.074 6.43359C102.337 6.43359 100.851 7.06624 99.6152 8.33154C98.3799 9.59684 97.7622 11.1317 97.7622 12.936C97.7622 14.7104 98.3836 16.2266 99.6265 17.4844C100.869 18.7422 102.367 19.3711 104.119 19.3711C105.122 19.3711 106.062 19.1802 106.938 18.7983C107.821 18.409 108.633 17.7988 109.375 16.9678ZM104.253 17.855C103.362 17.855 102.543 17.6379 101.794 17.2036C101.053 16.7619 100.461 16.1517 100.02 15.373C99.5778 14.5944 99.3569 13.7633 99.3569 12.8799C99.3569 12.0114 99.5778 11.1803 100.02 10.3867C100.469 9.58561 101.068 8.96794 101.816 8.53369C102.573 8.09196 103.377 7.87109 104.231 7.87109C105.099 7.87109 105.923 8.09196 106.702 8.53369C107.48 8.96794 108.079 9.56315 108.499 10.3193C108.918 11.068 109.127 11.9066 109.127 12.835C109.127 14.265 108.656 15.4591 107.712 16.4175C106.769 17.3758 105.616 17.855 104.253 17.855ZM114.395 1.9751C114.754 1.9751 115.061 2.10238 115.315 2.35693C115.577 2.61149 115.708 2.91846 115.708 3.27783C115.708 3.63721 115.577 3.94792 115.315 4.20996C115.061 4.46452 114.754 4.5918 114.395 4.5918C114.035 4.5918 113.728 4.46452 113.474 4.20996C113.219 3.94792 113.092 3.63721 113.092 3.27783C113.092 2.91846 113.219 2.61149 113.474 2.35693C113.728 2.10238 114.035 1.9751 114.395 1.9751ZM113.608 7.04004H115.192V19.3599H113.608V7.04004ZM124.289 6.43359C126.183 6.43359 127.755 7.11865 129.005 8.48877C130.158 9.7391 130.735 11.2253 130.735 12.9473C130.75 17.1999 130.75 19.3599 130.735 19.4272C130.016 19.4272 129.458 19.4272 129.062 19.4272C129.062 19.3748 129.062 18.4427 129.062 16.6309C128.186 18.263 126.595 19.1764 124.289 19.3711C122.402 19.3711 120.86 18.731 119.662 17.4507C118.471 16.1629 117.876 14.6618 117.876 12.9473C117.876 11.2402 118.441 9.75781 119.572 8.5C120.822 7.1224 122.394 6.43359 124.289 6.43359ZM124.289 7.9834C122.978 7.9834 121.852 8.47005 120.908 9.44336C119.965 10.4167 119.493 11.5921 119.493 12.9697C119.493 13.8607 119.733 14.7179 120.212 15.5415C120.699 16.3651 121.518 17.0614 122.671 17.6304C125.561 18.2743 127.617 16.9603 128.837 13.6885C128.904 12.6403 128.792 11.637 128.5 10.6787C128.29 10.2445 128.002 9.83268 127.635 9.44336C126.714 8.47005 125.599 7.9834 124.289 7.9834ZM133.565 2.27832H135.16V19.3599H133.565V2.27832Z" fill="#C29BA5"/>
<g clip-path="url(#clip1_39_47)">
<path d="M4.10136 6.79219C4.0642 6.70636 4.08588 6.66208 4.10136 6.65066C4.13069 6.61779 4.2733 6.69782 4.34093 6.74197C5.60478 7.36287 7.73647 7.6505 8.68986 7.63908C9.45258 7.62995 11.4425 7.55768 12.3421 7.52266C12.3695 7.52632 12.3779 7.55768 12.3788 7.57288C12.2932 8.06139 10.8558 9.53146 10.5184 9.79398C10.1811 10.0565 8.55785 11.2663 8.54807 11.2777C8.5383 11.2892 8.53096 11.2937 8.49918 11.296C8.47376 11.2978 8.45601 11.2846 8.45029 11.2777L6.59973 9.79398C5.69034 9.15253 4.68073 7.80572 4.49249 7.52723C4.30426 7.24874 4.1478 6.89948 4.10136 6.79219Z" fill="#C29BA5"/>
<path d="M9.03851 22.291C8.82339 22.0116 8.72722 21.5445 8.70605 21.3459C8.18779 22.1312 7.66543 22.679 7.46908 22.8548C7.26779 23.0656 6.69561 23.5752 6.01699 23.9277C5.16871 24.3683 4.45731 24.3546 4.22018 24.3614C4.03048 24.3669 4.0401 24.4641 4.06862 24.5121C4.846 25.4206 6.66725 26.3862 8.51292 26.3268C10.3586 26.2675 11.9525 25.0325 12.3118 24.6216C12.6712 24.2108 12.5538 24.14 12.5245 24.0669C12.4952 23.9939 12.1432 23.7907 11.4147 23.5716C10.6862 23.3524 10.3953 23.2885 10.0066 23.1356C9.61788 22.9826 9.30742 22.6402 9.03851 22.291Z" fill="#C29BA5"/>
<path fill-rule="evenodd" clip-rule="evenodd" d="M3.40647 7.85885C-0.873093 2.50608 6.6467 0.0118488 6.6467 0.0118488C5.60593 -0.0676686 4.42732 0.26794 3.60247 0.573145C2.61671 0.937887 1.7351 1.51597 1.08177 2.28476C-0.0176652 3.5785 -0.114565 4.93836 0.0804701 6.00062C0.256958 6.96193 0.726532 7.85593 1.39598 8.61322C2.98027 10.4055 5.36103 12.302 6.90279 13.4578C5.01813 14.8474 1.96713 17.2321 0.938307 18.8167C0.938307 18.8167 -1.75169 22.572 1.97763 25.5147C1.97763 25.5147 4.1174 26.944 6.68514 27C6.68514 27 -0.00930556 24.9822 2.7724 19.9657C2.7724 19.9657 4.48423 17.0511 8.23706 14.7621C8.32541 14.7082 8.41307 14.6534 8.50003 14.5976C8.58694 14.6534 8.6746 14.7082 8.76295 14.7621C12.5158 17.0511 14.2276 19.9657 14.2276 19.9657C17.0093 24.9822 10.3149 27 10.3149 27C12.8826 26.944 15.0224 25.5147 15.0224 25.5147C18.7517 22.572 16.0617 18.8167 16.0617 18.8167C15.0329 17.2321 11.9819 14.8474 10.0972 13.4578C11.639 12.302 14.0197 10.4055 15.604 8.61322C16.2735 7.85593 16.7431 6.96193 16.9195 6.00062C17.1146 4.93836 17.0177 3.5785 15.9183 2.28476C15.2649 1.51597 14.3833 0.937887 13.3975 0.573145C12.5727 0.26794 11.3941 -0.0676686 10.3533 0.0118488C10.3533 0.0118488 17.8731 2.50608 13.5936 7.85885C13.5936 7.85885 12.2282 9.83388 8.50003 12.315C4.7718 9.83388 3.40647 7.85885 3.40647 7.85885Z" fill="#D7D7D7"/>
</g>
</g>
<defs>
<clipPath id="clip0_39_47">
<rect width="137" height="27" fill="white"/>
</clipPath>
<clipPath id="clip1_39_47">
<rect width="17" height="27" fill="white"/>
</clipPath>
</defs>
</svg>
