<svg width="512" height="512" viewBox="0 0 512 512" fill="none" xmlns="http://www.w3.org/2000/svg">
<path d="M339.14 238.09C414.76 238.09 476.113 217.618 476.113 192.438C476.113 167.259 414.76 146.787 339.14 146.787C263.519 146.787 202.166 167.259 202.166 192.438C202.166 217.618 263.519 238.09 339.14 238.09Z" fill="white"/>
<path d="M407.626 368.911C448.504 360.993 476.113 346.299 476.113 329.393V298.935C459.562 310.633 435.235 318.622 407.626 323.544V368.911Z" fill="white"/>
<path d="M247.824 260.916C172.203 260.916 110.85 286.452 110.85 317.981C110.85 349.509 172.203 375.045 247.824 375.045C323.445 375.045 384.797 349.509 384.797 317.981C384.797 286.452 323.445 260.916 247.824 260.916Z" fill="white"/>
<path d="M110.85 435.89V466.348C110.85 491.528 172.203 512 247.824 512C323.445 512 384.797 491.528 384.797 466.348V435.89C355.334 456.647 301.472 466.348 247.824 466.348C194.176 466.348 140.314 456.647 110.85 435.89Z" fill="white"/>
<path d="M72.7833 63.868C72.6444 63.9777 72.45 64.4029 72.7833 65.2272C73.1999 66.2575 74.603 69.6115 76.2912 72.2859C77.9794 74.9604 87.0342 87.8941 95.1902 94.0541L111.787 108.303C111.838 108.369 111.998 108.496 112.226 108.478C112.511 108.457 112.576 108.413 112.664 108.303C112.752 108.193 127.31 96.575 130.335 94.0541C133.361 91.5331 146.252 77.4156 147.02 72.7244C147.012 72.5782 146.936 72.2772 146.691 72.2421C138.623 72.5782 120.776 73.2724 113.936 73.3601C105.385 73.4697 86.2669 70.7076 74.9319 64.7449C74.3253 64.3211 73.0464 63.5524 72.7833 63.868Z" fill="white"/>
<path d="M114.081 204.991C114.271 206.898 115.133 211.383 117.062 214.066C119.474 217.42 122.258 220.708 125.744 222.177C129.23 223.646 131.839 224.26 138.373 226.364C144.906 228.469 148.064 230.42 148.327 231.121C148.59 231.823 149.642 232.502 146.419 236.448C143.196 240.394 128.901 252.254 112.348 252.824C95.7954 253.394 79.4617 244.121 72.4897 235.396C72.2339 234.936 72.1476 234.002 73.849 233.949C75.9757 233.883 82.3557 234.015 89.9635 229.784C96.0498 226.399 101.182 221.505 102.987 219.481C104.748 217.793 109.433 212.532 114.081 204.991Z" fill="white"/>
<path d="M94.5187 0.11377C94.5187 0.11377 28.3131 24.0629 65.9912 75.4595C65.9912 75.4595 78.0119 94.423 110.836 118.247C143.66 94.423 155.68 75.4595 155.68 75.4595C193.358 24.0629 127.153 0.11377 127.153 0.11377C136.316 -0.649743 146.692 2.57272 153.955 5.50325C162.633 9.00544 170.395 14.556 176.147 21.9378C185.827 34.3601 186.68 47.4173 184.963 57.6171C183.409 66.847 179.275 75.4312 173.381 82.7027C159.433 99.9116 138.472 118.121 124.898 129.22C141.491 142.563 168.352 165.459 177.41 180.674C177.41 180.674 201.094 216.733 168.26 244.987C168.26 244.987 149.421 258.711 126.814 259.249C126.814 259.249 185.753 239.875 161.263 191.707C161.263 191.707 146.191 163.722 113.151 141.743C112.373 141.225 111.601 140.699 110.836 140.164C110.07 140.699 109.299 141.225 108.521 141.743C75.48 163.722 60.4088 191.707 60.4088 191.707C35.9181 239.875 94.8572 259.249 94.8572 259.249C72.2504 258.711 53.4115 244.987 53.4115 244.987C20.5777 216.733 44.261 180.674 44.261 180.674C53.319 165.459 80.1807 142.563 96.7734 129.22C83.1997 118.121 62.2388 99.9116 48.2905 82.7027C42.3965 75.4312 38.2623 66.847 36.7085 57.6171C34.9913 47.4173 35.8445 34.3601 45.5241 21.9378C51.2761 14.556 59.038 9.00544 67.7168 5.50325C74.979 2.57272 85.3555 -0.649743 94.5187 0.11377Z" fill="white"/>
<path d="M110.85 361.064V397.871C110.85 423.051 172.203 443.523 247.824 443.523C323.445 443.523 384.797 423.051 384.797 397.871V361.064C355.334 385.317 301.401 397.871 247.824 397.871C194.247 397.871 140.314 385.317 110.85 361.064Z" fill="white"/>
<path d="M404.273 301.075C447.078 293.371 476.113 278.249 476.113 260.916V230.458C450.787 248.362 407.27 257.991 361.469 260.274C382.515 270.474 397.995 284.17 404.273 301.075Z" fill="white"/>
</svg>
