<svg width="32" height="32" viewBox="0 0 32 32" fill="none" xmlns="http://www.w3.org/2000/svg">
<g clip-path="url(#clip0_208_7)">
<path d="M21.1962 14.8806C25.9225 14.8806 29.7571 13.6011 29.7571 12.0274C29.7571 10.4537 25.9225 9.17417 21.1962 9.17417C16.4699 9.17417 12.6354 10.4537 12.6354 12.0274C12.6354 13.6011 16.4699 14.8806 21.1962 14.8806Z" fill="white"/>
<path d="M25.4766 23.0569C28.0315 22.5621 29.7571 21.6437 29.7571 20.5871V18.6835C28.7226 19.4146 27.2022 19.9139 25.4766 20.2215V23.0569Z" fill="white"/>
<path d="M15.489 16.3072C10.7627 16.3072 6.92815 17.9033 6.92815 19.8738C6.92815 21.8443 10.7627 23.4403 15.489 23.4403C20.2153 23.4403 24.0498 21.8443 24.0498 19.8738C24.0498 17.9033 20.2153 16.3072 15.489 16.3072Z" fill="white"/>
<path d="M6.92815 27.2431V29.1468C6.92815 30.7205 10.7627 32 15.489 32C20.2153 32 24.0498 30.7205 24.0498 29.1468V27.2431C22.2084 28.5405 18.842 29.1468 15.489 29.1468C12.136 29.1468 8.76962 28.5405 6.92815 27.2431Z" fill="white"/>
<path d="M4.54896 3.99175C4.54028 3.9986 4.52813 4.02518 4.54896 4.0767C4.57499 4.14109 4.66269 4.35072 4.7682 4.51787C4.87371 4.68502 5.43964 5.49338 5.94939 5.87838L6.98669 6.76894C6.98989 6.77305 6.99984 6.781 7.0141 6.7799C7.03191 6.77853 7.03602 6.77579 7.0415 6.76894C7.04698 6.76209 7.95685 6.03594 8.14595 5.87838C8.33505 5.72082 9.14078 4.83847 9.18874 4.54527C9.18828 4.53614 9.18353 4.51732 9.16818 4.51513C8.66392 4.53614 7.54851 4.57953 7.12098 4.58501C6.58657 4.59186 5.39168 4.41922 4.68324 4.04656C4.64533 4.02007 4.5654 3.97202 4.54896 3.99175Z" fill="white"/>
<path d="M7.13003 12.8119C7.14191 12.9311 7.1958 13.2114 7.31639 13.3791C7.46712 13.5888 7.64115 13.7943 7.85902 13.8861C8.0769 13.9779 8.23996 14.0162 8.64831 14.1478C9.05665 14.2793 9.25397 14.4012 9.27041 14.4451C9.28686 14.4889 9.35263 14.5314 9.1512 14.778C8.94977 15.0246 8.05634 15.7658 7.02178 15.8015C5.98721 15.8371 4.96635 15.2575 4.5306 14.7122C4.51462 14.6835 4.50923 14.6251 4.61556 14.6218C4.74848 14.6177 5.14723 14.6259 5.62272 14.3615C6.00311 14.15 6.32385 13.8441 6.43667 13.7176C6.54675 13.6121 6.83953 13.2832 7.13003 12.8119Z" fill="white"/>
<path d="M5.90742 0.00711064C5.90742 0.00711064 1.76957 1.50393 4.12445 4.71622C4.12445 4.71622 4.87574 5.90144 6.92723 7.39043C8.97872 5.90144 9.73001 4.71622 9.73001 4.71622C12.0849 1.50393 7.94704 0.00711064 7.94704 0.00711064C8.51974 -0.040609 9.16827 0.160795 9.62216 0.343953C10.1646 0.56284 10.6497 0.909753 11.0092 1.37111C11.6142 2.14751 11.6675 2.96358 11.5602 3.60107C11.4631 4.17794 11.2047 4.71445 10.8363 5.16892C9.96453 6.24447 8.65448 7.38258 7.80612 8.07623C8.84317 8.91016 10.522 10.3412 11.0881 11.2922C11.0881 11.2922 12.5684 13.5458 10.5162 15.3117C10.5162 15.3117 9.33881 16.1694 7.92588 16.2031C7.92588 16.2031 11.6096 14.9922 10.0789 11.9817C10.0789 11.9817 9.13696 10.2326 7.07191 8.85893C7.0233 8.82659 6.97506 8.79369 6.92723 8.76024C6.8794 8.79369 6.83117 8.82659 6.78255 8.85893C4.7175 10.2326 3.77555 11.9817 3.77555 11.9817C2.24488 14.9922 5.92857 16.2031 5.92857 16.2031C4.51565 16.1694 3.33822 15.3117 3.33822 15.3117C1.28611 13.5458 2.76631 11.2922 2.76631 11.2922C3.33244 10.3412 5.01129 8.91016 6.04834 8.07624C5.19998 7.38258 3.88993 6.24447 3.01815 5.16892C2.64978 4.71445 2.39139 4.17794 2.29428 3.60107C2.18696 2.96358 2.24028 2.14751 2.84526 1.37111C3.20476 0.909753 3.68987 0.56284 4.2323 0.343953C4.68619 0.160795 5.33472 -0.040609 5.90742 0.00711064Z" fill="white"/>
<path d="M6.92815 22.5665V24.8669C6.92815 26.4407 10.7627 27.7202 15.489 27.7202C20.2153 27.7202 24.0498 26.4407 24.0498 24.8669V22.5665C22.2084 24.0823 18.8375 24.8669 15.489 24.8669C12.1405 24.8669 8.76962 24.0823 6.92815 22.5665Z" fill="white"/>
<path d="M25.2671 18.8172C27.9423 18.3357 29.7571 17.3906 29.7571 16.3072V14.4036C28.1742 15.5226 25.4544 16.1245 22.5918 16.2671C23.9072 16.9046 24.8747 17.7606 25.2671 18.8172Z" fill="white"/>
</g>
<defs>
<clipPath id="clip0_208_7">
<rect width="32" height="32" fill="white"/>
</clipPath>
</defs>
</svg>
